<svg width="40" height="40" viewBox="0 0 40 40" fill="none" xmlns="http://www.w3.org/2000/svg">
<path d="M28.7975 25.2504C26.8681 28.586 23.6619 30.5004 20 30.5004C16.3381 30.5004 13.1319 28.5879 11.2006 25.2504C11.1021 25.0798 11.0382 24.8914 11.0125 24.696C10.9868 24.5007 10.9999 24.3022 11.0509 24.1119C11.1019 23.9216 11.1899 23.7432 11.3098 23.5869C11.4298 23.4306 11.5794 23.2995 11.75 23.201C11.9206 23.1025 12.109 23.0386 12.3043 23.0129C12.4997 22.9872 12.6982 23.0002 12.8885 23.0513C13.0788 23.1023 13.2572 23.1903 13.4135 23.3102C13.5697 23.4302 13.7009 23.5798 13.7994 23.7504C15.1981 26.171 17.3994 27.5004 20 27.5004C22.6006 27.5004 24.8019 26.1691 26.2025 23.7504C26.2963 23.5711 26.4253 23.4127 26.5819 23.2846C26.7385 23.1565 26.9194 23.0614 27.1137 23.0051C27.308 22.9487 27.5117 22.9322 27.7125 22.9566C27.9133 22.981 28.1071 23.0458 28.2823 23.147C28.4574 23.2483 28.6103 23.3839 28.7317 23.5457C28.853 23.7076 28.9404 23.8923 28.9886 24.0888C29.0367 24.2853 29.0446 24.4895 29.0117 24.6891C28.9789 24.8887 28.906 25.0797 28.7975 25.2504ZM39.5 20.0004C39.5009 21.9422 39.2128 23.8734 38.645 25.7304C38.5726 25.9648 38.4439 26.1779 38.27 26.351L26.3506 38.2704C26.1785 38.4446 25.966 38.5735 25.7319 38.6454C21.8086 39.8519 17.6047 39.7897 13.719 38.4676C9.83316 37.1455 6.46363 34.6309 4.0903 31.2821C1.71697 27.9333 0.460879 23.9209 0.500929 19.8166C0.540979 15.7122 1.87513 11.7251 4.31335 8.42326C6.75158 5.12138 10.1695 2.67307 14.0804 1.42706C17.9912 0.181038 22.1956 0.200855 26.0945 1.48368C29.9934 2.76651 33.3882 5.24694 35.7951 8.57165C38.2021 11.8964 39.4986 15.8958 39.5 20.0004ZM36.5 20.0004C36.4957 16.5485 35.4076 13.1851 33.3892 10.3849C31.3708 7.58464 28.524 5.48889 25.2506 4.39339C21.9772 3.2979 18.4424 3.25797 15.1451 4.27923C11.8477 5.3005 8.95433 7.33141 6.87318 10.0854C4.79203 12.8393 3.62821 16.1772 3.54594 19.6281C3.46368 23.079 4.46713 26.4686 6.41469 29.3186C8.36225 32.1686 11.1556 34.335 14.4005 35.5123C17.6454 36.6895 21.1781 36.818 24.5 35.8798L35.8794 24.5004C36.2926 23.0362 36.5015 21.5218 36.5 20.0004ZM13.25 18.5004C13.695 18.5004 14.13 18.3684 14.5 18.1212C14.87 17.874 15.1584 17.5226 15.3287 17.1114C15.499 16.7003 15.5436 16.2479 15.4568 15.8114C15.37 15.375 15.1557 14.9741 14.841 14.6594C14.5263 14.3447 14.1254 14.1304 13.689 14.0436C13.2525 13.9568 12.8001 14.0014 12.389 14.1717C11.9778 14.342 11.6264 14.6303 11.3792 15.0004C11.132 15.3704 11 15.8054 11 16.2504C11 16.8471 11.2371 17.4194 11.659 17.8414C12.081 18.2633 12.6533 18.5004 13.25 18.5004ZM26.75 14.0004C26.305 14.0004 25.87 14.1323 25.5 14.3796C25.13 14.6268 24.8416 14.9782 24.6713 15.3894C24.501 15.8005 24.4564 16.2529 24.5432 16.6893C24.63 17.1258 24.8443 17.5267 25.159 17.8414C25.4737 18.156 25.8746 18.3703 26.311 18.4572C26.7475 18.544 27.1999 18.4994 27.611 18.3291C28.0222 18.1588 28.3736 17.8704 28.6208 17.5004C28.868 17.1304 29 16.6954 29 16.2504C29 15.6537 28.7629 15.0814 28.341 14.6594C27.919 14.2374 27.3467 14.0004 26.75 14.0004Z" fill="#E6D385"/>
</svg>
