<svg width="42" height="38" viewBox="0 0 42 38" fill="none" xmlns="http://www.w3.org/2000/svg">
<path d="M40.875 12.0225C40.4526 11.5439 39.9332 11.1606 39.3513 10.8981C38.7694 10.6356 38.1384 10.4999 37.5 10.5H27V7.5C27 5.51088 26.2098 3.60322 24.8033 2.1967C23.3968 0.790177 21.4891 3.84567e-07 19.5 3.84567e-07C19.2213 -0.000199126 18.9481 0.0772334 18.711 0.223615C18.4739 0.369998 18.2822 0.579541 18.1575 0.82875L11.0737 15H3C2.20435 15 1.44129 15.3161 0.87868 15.8787C0.31607 16.4413 0 17.2044 0 18V34.5C0 35.2957 0.31607 36.0587 0.87868 36.6213C1.44129 37.1839 2.20435 37.5 3 37.5H35.25C36.3463 37.5004 37.4051 37.1005 38.2274 36.3755C39.0498 35.6505 39.5792 34.6502 39.7163 33.5625L41.9663 15.5625C42.046 14.9288 41.9899 14.2854 41.8018 13.675C41.6136 13.0646 41.2977 12.5013 40.875 12.0225ZM3 18H10.5V34.5H3V18ZM38.9888 15.1875L36.7388 33.1875C36.6931 33.5501 36.5166 33.8835 36.2425 34.1252C35.9684 34.3668 35.6154 34.5001 35.25 34.5H13.5V16.8544L20.3831 3.08625C21.4033 3.29043 22.3212 3.84179 22.9806 4.64652C23.6401 5.45124 24.0003 6.4596 24 7.5V12C24 12.3978 24.158 12.7794 24.4393 13.0607C24.7206 13.342 25.1022 13.5 25.5 13.5H37.5C37.7129 13.4999 37.9233 13.5452 38.1173 13.6327C38.3113 13.7202 38.4845 13.848 38.6253 14.0077C38.7662 14.1673 38.8714 14.355 38.9341 14.5585C38.9967 14.7619 39.0154 14.9763 38.9888 15.1875Z" fill="#E6D385"/>
</svg>
